<?xml version="1.0" encoding="UTF-8" standalone="no"?>
<!DOCTYPE svg PUBLIC "-//W3C//DTD SVG 1.1//EN" "http://www.w3.org/Graphics/SVG/1.1/DTD/svg11.dtd">
<svg version="1.1" xmlns="http://www.w3.org/2000/svg" xmlns:xlink="http://www.w3.org/1999/xlink" preserveAspectRatio="xMidYMid meet" viewBox="-1 -4.149999999999963 604 457.15" width="600" height="450"><defs><path d="M0 0L600 0L600 450L0 450L0 0Z" id="b13WGPYtXl"></path><path d="M89.02 422.96C13.58 346.96 72.84 214.26 266.78 24.85C259.61 24.85 223.75 24.85 159.2 24.85" id="cY9XU8Jca"></path><path d="M378.11 422.96L306.35 422.96L306.35 24.85L373.65 24.85L373.65 207.74L532.98 68.7L494.04 24.85L405.4 98.34" id="a4gBJ1VbXT"></path><path d="M260.4 114L466.36 422.61L383.67 422.96L241.31 196.29L241.31 422.61L174.45 422.96L174.45 10.85" id="a1YpbSPGCz"></path><path d="M252 93.05L233.66 125.39L291 202.72L291 117.72L281 95.72L252 93.05Z" id="a6gE3wYzPN"></path><path d="M252 93.05L233.66 125.39L291 202.72L291 117.72L281 95.72L252 93.05Z" id="a1AGOgv8S7"></path><path d="M289.33 300.9L382.04 447.96L312.36 412.76L259.12 319.95L289.33 300.9Z" id="a3I9eI49sq"></path><path d="M421.67 38.8L421.67 129.89L389.85 129.89L389.85 38.8L421.67 38.8Z" id="c2bv3Bcr8c"></path><path d="M328.02 366.35L328.02 404.35L266.78 404.35L266.78 366.35L328.02 366.35Z" id="a40tbVcwyl"></path><path d="M329.97 373.35L329.97 411.35L268.73 411.35L268.73 373.35L329.97 373.35Z" id="asqVsxKyA"></path><path d="M382.04 448.68L279.39 448.68L279.39 391.35L382.04 448.68Z" id="a2TP4epw6W"></path></defs><g><g><use xlink:href="#b13WGPYtXl" opacity="1" fill="#ffffff" fill-opacity="1"></use></g><g><use xlink:href="#cY9XU8Jca" opacity="1" fill="#000000" fill-opacity="0"></use><g><use xlink:href="#cY9XU8Jca" opacity="1" fill-opacity="0" stroke="#900202" stroke-width="30" stroke-opacity="1"></use></g></g><g><use xlink:href="#a4gBJ1VbXT" opacity="1" fill="#000000" fill-opacity="0"></use><g><use xlink:href="#a4gBJ1VbXT" opacity="1" fill-opacity="0" stroke="#900202" stroke-width="30" stroke-opacity="1"></use></g></g><g><use xlink:href="#a1YpbSPGCz" opacity="1" fill="#000000" fill-opacity="0"></use><g><use xlink:href="#a1YpbSPGCz" opacity="1" fill-opacity="0" stroke="#540000" stroke-width="30" stroke-opacity="1"></use></g></g><g><use xlink:href="#a6gE3wYzPN" opacity="1" fill="#ffffff" fill-opacity="1"></use><g><use xlink:href="#a6gE3wYzPN" opacity="1" fill-opacity="0" stroke="#000000" stroke-width="1" stroke-opacity="0"></use></g></g><g><use xlink:href="#a1AGOgv8S7" opacity="1" fill="#000000" fill-opacity="0"></use><g><use xlink:href="#a1AGOgv8S7" opacity="1" fill-opacity="0" stroke="#ffffff" stroke-width="0" stroke-opacity="1"></use></g></g><g><use xlink:href="#a3I9eI49sq" opacity="1" fill="#ffffff" fill-opacity="1"></use><g><use xlink:href="#a3I9eI49sq" opacity="1" fill-opacity="0" stroke="#000000" stroke-width="1" stroke-opacity="0"></use></g></g><g><use xlink:href="#c2bv3Bcr8c" opacity="1" fill="#ffffff" fill-opacity="1"></use><g><use xlink:href="#c2bv3Bcr8c" opacity="1" fill-opacity="0" stroke="#000000" stroke-width="1" stroke-opacity="0"></use></g></g><g><use xlink:href="#a40tbVcwyl" opacity="1" fill="#ffffff" fill-opacity="1"></use><g><use xlink:href="#a40tbVcwyl" opacity="1" fill-opacity="0" stroke="#000000" stroke-width="1" stroke-opacity="0"></use></g></g><g><use xlink:href="#asqVsxKyA" opacity="1" fill="#ffffff" fill-opacity="1"></use><g><use xlink:href="#asqVsxKyA" opacity="1" fill-opacity="0" stroke="#000000" stroke-width="1" stroke-opacity="0"></use></g></g><g><use xlink:href="#a2TP4epw6W" opacity="1" fill="#ffffff" fill-opacity="1"></use><g><use xlink:href="#a2TP4epw6W" opacity="1" fill-opacity="0" stroke="#000000" stroke-width="1" stroke-opacity="0"></use></g></g></g></svg>